<svg width="20" height="20" viewBox="0 0 20 20" fill="none" xmlns="http://www.w3.org/2000/svg">
<path d="M14.8203 10.3594C14.8203 10.1641 14.7422 9.98438 14.5938 9.84375L8.40625 3.78125C8.26562 3.64844 8.09375 3.57812 7.89062 3.57812C7.49219 3.57812 7.17969 3.88281 7.17969 4.28906C7.17969 4.48438 7.25781 4.66406 7.38281 4.79688L13.0703 10.3594L7.38281 15.9219C7.25781 16.0547 7.17969 16.2266 7.17969 16.4297C7.17969 16.8359 7.49219 17.1406 7.89062 17.1406C8.09375 17.1406 8.26562 17.0703 8.40625 16.9297L14.5938 10.875C14.7422 10.7266 14.8203 10.5547 14.8203 10.3594Z" fill="#054F77"/>
</svg>
