<svg width="20" height="21" viewBox="0 0 20 21" fill="none" xmlns="http://www.w3.org/2000/svg">
<path d="M10 14.1157C10.1831 14.1157 10.3662 14.0425 10.4907 13.9033L16.1597 8.09521C16.2842 7.9707 16.3574 7.80957 16.3574 7.62646C16.3574 7.24561 16.0718 6.95264 15.6909 6.95264C15.5078 6.95264 15.3394 7.02588 15.2148 7.14307L10 12.4751L4.77783 7.14307C4.66064 7.02588 4.49219 6.95264 4.30176 6.95264C3.9209 6.95264 3.63525 7.24561 3.63525 7.62646C3.63525 7.80957 3.7085 7.9707 3.83301 8.10254L9.50195 13.9033C9.64111 14.0425 9.80957 14.1157 10 14.1157Z" fill="#054F77"/>
</svg>
