<svg width="48" height="80" viewBox="0 0 48 80" fill="none" xmlns="http://www.w3.org/2000/svg">
<path fill-rule="evenodd" clip-rule="evenodd" d="M18 0H0V80L24 70.4L48 80V0H30H18Z" fill="#EAC151"/>
<path d="M23.5137 46.0752C30.7754 46.0752 36.7549 40.0957 36.7549 32.834C36.7549 25.585 30.7627 19.5928 23.501 19.5928C16.252 19.5928 10.2725 25.585 10.2725 32.834C10.2725 40.0957 16.252 46.0752 23.5137 46.0752ZM19.8955 39.5117C19.0957 40.1084 18.2324 39.5117 18.5498 38.5342L19.9717 34.2939L16.3281 31.6787C15.6045 31.1455 15.8076 30.0537 16.8486 30.0664L21.3301 30.1172L22.6885 25.8389C22.9932 24.8867 24.0215 24.8867 24.3262 25.8389L25.6973 30.1172L30.1787 30.0664C31.2451 30.0537 31.3975 31.1582 30.6865 31.666L27.043 34.2812L28.4648 38.5342C28.7949 39.5244 27.9316 40.1084 27.1318 39.5117L23.5137 36.8584L19.8955 39.5117Z" fill="white"/>
</svg>
