<svg fill="none" height="25" viewBox="0 0 14 25" width="14" xmlns="http://www.w3.org/2000/svg"><path d="m13.6074 12.6289c0-.3418-.1367-.6562-.3965-.9023l-10.82809-10.60941c-.24609-.232424-.54687-.355471-.90234-.355471-.697267 0-1.244142.533201-1.244142 1.244141 0 .3418.136719.65625.355469.88867l9.953103 9.73437-9.953103 9.7344c-.21875.2324-.355469.5332-.355469.8887 0 .7109.546875 1.2441 1.244142 1.2441.35547 0 .65625-.1231.90234-.3691l10.82809-10.5958c.2598-.2597.3965-.5605.3965-.9023z" fill="#9b9b9b"/></svg>