<svg fill="none" height="64" viewBox="0 0 64 64" width="64" xmlns="http://www.w3.org/2000/svg"><circle cx="32" cy="32" fill="#fff" r="28"/><g fill="#000"><path d="m21.9159 1.35839c-22.700035 8.2-29.30003 36.20001-12.50004 52.90001 6.50004 6.5 12.50004 8.9 22.50004 8.9 7.8.1 9-.2 14.8-3.3 6.9-3.7 11-8 14.4-15.1 3.3-6.7 3.2-19.6-.2-26.5-3.2-6.4-9.2-12.40001-15.5-15.40001-6.5-3.099999-17.2-3.799999-23.5-1.5zm19.5 8.3c8.8 4.00001 14.5 12.60001 14.5 22.10001 0 21.3-25.8 32-40.9 16.9-15.1000354-15.1-4.4-40.90001 16.9-40.90001 3.2 0 7.2.8 9.5 1.9z"/><path d="m20.6159 20.5584c-2.3 2.6-2.2 3.1 2 7.4l3.7 3.8-3.7 3.8c-4 4.1-4.1 6.4-.6 8.2 1.5.8 2.6.3 5.9-2.6l4.1-3.7 3.8 3.7c4 3.9 6.3 4 8.2.4.9-1.7.5-2.6-2.7-5.9l-3.7-3.8 3.7-4.1c2.9-3.3 3.4-4.4 2.6-5.9-1.8-3.5-4.1-3.4-8.2.6l-3.8 3.7-3.8-3.7c-4.3-4.2-5.2-4.4-7.5-1.9z"/></g></svg>