<svg fill="none" height="11" viewBox="0 0 12 11" width="12" xmlns="http://www.w3.org/2000/svg"><path d="m1.13135 9.49219c-.215823.21582-.22217.58401 0 .79981s.59033.2158.80615 0l4.0625-4.06251 4.0625 4.06251c.2158.2158.5903.2222.8062 0 .2158-.2222.2158-.58399 0-.79981l-4.06255-4.06885 4.06255-4.0625c.2158-.21582.2221-.583985 0-.799805-.2222-.222168-.5904-.222168-.8062 0l-4.0625 4.062505-4.0625-4.062505c-.21582-.222168-.59033-.228515-.80615 0-.215823.222168-.215823.583985 0 .799805l4.0625 4.0625z" fill="#fff"/></svg>