<svg width="14" height="14" viewBox="0 0 14 14" fill="none" xmlns="http://www.w3.org/2000/svg">
<path d="M0.151855 7.00684C0.151855 7.41357 0.492188 7.74561 0.890625 7.74561H6.26123V13.1162C6.26123 13.5146 6.59326 13.855 7 13.855C7.40674 13.855 7.74707 13.5146 7.74707 13.1162V7.74561H13.1094C13.5078 7.74561 13.8481 7.41357 13.8481 7.00684C13.8481 6.6001 13.5078 6.25977 13.1094 6.25977H7.74707V0.897461C7.74707 0.499023 7.40674 0.158691 7 0.158691C6.59326 0.158691 6.26123 0.499023 6.26123 0.897461V6.25977H0.890625C0.492188 6.25977 0.151855 6.6001 0.151855 7.00684Z" fill="#054F77"/>
</svg>
