<svg width="20" height="20" viewBox="0 0 20 20" fill="none" xmlns="http://www.w3.org/2000/svg">
<path d="M9.275 17.175H10.65V15.875C11.6667 15.7583 12.4583 15.4458 13.025 14.9375C13.5917 14.4292 13.875 13.75 13.875 12.9C13.875 12.05 13.6333 11.3583 13.15 10.825C12.6667 10.2917 11.85 9.78333 10.7 9.3C9.73333 8.9 9.03333 8.54167 8.6 8.225C8.16667 7.90833 7.95 7.48333 7.95 6.95C7.95 6.43333 8.1375 6.025 8.5125 5.725C8.8875 5.425 9.4 5.275 10.05 5.275C10.55 5.275 10.9833 5.39167 11.35 5.625C11.7167 5.85833 12.025 6.20833 12.275 6.675L13.475 6.1C13.1917 5.51667 12.8167 5.05833 12.35 4.725C11.8833 4.39167 11.3333 4.19167 10.7 4.125V2.85H9.325V4.125C8.475 4.24167 7.80417 4.55417 7.3125 5.0625C6.82083 5.57083 6.575 6.2 6.575 6.95C6.575 7.76667 6.825 8.41667 7.325 8.9C7.825 9.38333 8.575 9.83333 9.575 10.25C10.6917 10.7167 11.4583 11.1375 11.875 11.5125C12.2917 11.8875 12.5 12.35 12.5 12.9C12.5 13.4333 12.2792 13.8625 11.8375 14.1875C11.3958 14.5125 10.8417 14.675 10.175 14.675C9.525 14.675 8.94583 14.4917 8.4375 14.125C7.92917 13.7583 7.575 13.2583 7.375 12.625L6.1 13.05C6.45 13.8167 6.87917 14.4208 7.3875 14.8625C7.89583 15.3042 8.525 15.625 9.275 15.825V17.175ZM10 20C8.63333 20 7.34167 19.7375 6.125 19.2125C4.90833 18.6875 3.84583 17.9708 2.9375 17.0625C2.02917 16.1542 1.3125 15.0917 0.7875 13.875C0.2625 12.6583 0 11.3667 0 10C0 8.61667 0.2625 7.31667 0.7875 6.1C1.3125 4.88333 2.02917 3.825 2.9375 2.925C3.84583 2.025 4.90833 1.3125 6.125 0.7875C7.34167 0.2625 8.63333 0 10 0C11.3833 0 12.6833 0.2625 13.9 0.7875C15.1167 1.3125 16.175 2.025 17.075 2.925C17.975 3.825 18.6875 4.88333 19.2125 6.1C19.7375 7.31667 20 8.61667 20 10C20 11.3667 19.7375 12.6583 19.2125 13.875C18.6875 15.0917 17.975 16.1542 17.075 17.0625C16.175 17.9708 15.1167 18.6875 13.9 19.2125C12.6833 19.7375 11.3833 20 10 20ZM10 18.5C12.3667 18.5 14.375 17.6708 16.025 16.0125C17.675 14.3542 18.5 12.35 18.5 10C18.5 7.63333 17.675 5.625 16.025 3.975C14.375 2.325 12.3667 1.5 10 1.5C7.65 1.5 5.64583 2.325 3.9875 3.975C2.32917 5.625 1.5 7.63333 1.5 10C1.5 12.35 2.32917 14.3542 3.9875 16.0125C5.64583 17.6708 7.65 18.5 10 18.5Z" fill="white"/>
</svg>
