<svg height="1365.3333" viewBox="0 0 1365.3333 1365.3333" width="1365.3333" xmlns="http://www.w3.org/2000/svg"><g transform="matrix(.13333333 0 0 -.13333333 0 1365.3333)"><path d="m10240 5120c0 2827.7-2292.3 5120-5120 5120s-5120-2292.3-5120-5120c0-2555.54 1872.31-4673.699 4320-5057.8008v3577.8008h-1300v1480h1300v1128c0 1283.2 764.38 1992 1933.9 1992 560.17 0 1146.1-100 1146.1-100v-1260h-645.62c-636.03 0-834.38-394.67-834.38-799.57v-960.43h1420l-227-1480h-1193v-3577.8008c2447.69 384.1018 4320 2502.2608 4320 5057.8008" fill="#1877f2"/><path d="m7113 3640 227 1480h-1420v960.43c0 404.9 198.35 799.57 834.38 799.57h645.62v1260s-585.93 100-1146.1 100c-1169.52 0-1933.9-708.8-1933.9-1992v-1128h-1300v-1480h1300v-3577.8008c260.67-40.8984 527.84-62.1992 800-62.1992s539.33 21.3008 800 62.1992v3577.8008z" fill="#fff"/></g></svg>