<svg width="20" height="21" viewBox="0 0 20 21" fill="none" xmlns="http://www.w3.org/2000/svg">
<path fill-rule="evenodd" clip-rule="evenodd" d="M14.0463 13.1125L20 19.0663L18.4242 20.6421L12.4705 14.6884C11.1683 15.6636 9.55122 16.2413 7.79934 16.2413C3.49177 16.2413 0 12.7492 0 8.44144C0 4.13367 3.49187 0.64209 7.79934 0.64209C12.1068 0.64209 15.5992 4.13396 15.5992 8.44144C15.5992 10.1934 15.0215 11.8104 14.0463 13.1125ZM7.79934 14.0126C10.8762 14.0126 13.3706 11.5183 13.3706 8.44134C13.3706 5.36448 10.8763 2.87058 7.79934 2.87058C4.72249 2.87058 2.22859 5.36467 2.22859 8.44134C2.22859 11.5182 4.72268 14.0126 7.79934 14.0126Z" fill="#214f74"/>
</svg>
