<svg fill="none" height="36" viewBox="0 0 36 36" width="36" xmlns="http://www.w3.org/2000/svg"><circle cx="18" cy="18" fill="#07b53b" r="18"/><path d="m25.8729 21.9605c1.4586-1.5801 2.1271-3.1603 2.1271-4.9228 0-4.4366-4.4366-8.08311-9.9064-8.08311-5.4697 0-9.90634 3.64651-9.90634 8.08311 0 3.9504 3.52494 7.2931 8.26544 7.9008 1.1547.2431 1.0332.6685.7901 2.2487-.0608.2431-.2431.9724.8508.547 1.0332-.4254 5.7129-3.3427 7.7793-5.7737z" fill="#fff"/><g fill="#07b53b"><path d="m20.8284 14.9104c.1216-.0608.2432.0608.2432.1823v4.3151c0 .1215-.1216.1823-.2432.1823h-.6685c-.0608 0-.1215-.0608-.1823-.0608l-1.9448-2.6741v2.5526c0 .1215-.1216.1823-.1823.1823h-.7293c-.1216 0-.1824-.0608-.1824-.1823v-4.3151c0-.1215.0608-.1823.1824-.1823h.7293c.0607 0 .1215 0 .1215.0608l2.0056 2.6741v-2.5526c0-.1215.0608-.1823.1823-.1823z"/><path d="m15.3587 14.8496h.7293c.0607 0 .1823.1216.1823.2431v4.3151c0 .1215-.1216.1823-.1823.1823h-.7293c-.1216 0-.1824-.0608-.1824-.1823v-4.3151c0-.1215.0608-.2431.1824-.2431z"/><path d="m12.5022 18.4961h1.8841c.1215 0 .1823.1216.1823.1824v.7293c0 .0607-.0608.1823-.1823.1823h-2.7957c-.0608 0-.0608-.0608-.1216-.0608 0-.0608-.0607-.0608-.0607-.1215v-4.3151c0-.1215.1215-.2431.1823-.2431h.7293c.1215 0 .1823.1216.1823.2431z"/><path d="m21.9224 14.8496h2.7957c.0607 0 .1823.1216.1823.2431v.6685c0 .1216-.1216.1824-.1823.1824h-1.8841v.7293h1.8841c.0607 0 .1823.1215.1823.1823v.7293c0 .1216-.1216.1823-.1823.1823h-1.8841v.7293h1.8841c.0607 0 .1823.1216.1823.1824v.7293c0 .1215-.1216.1823-.1823.1823h-2.7957c-.1215 0-.1823-.1216-.1823-.1823v-4.3151c0-.1215.0608-.2431.1823-.2431z"/></g></svg>