<svg height="18.942" viewBox="0 0 54.212 18.942" width="54.212" xmlns="http://www.w3.org/2000/svg"><g fill="#fff" transform="translate(-394.127 -285.405)"><path d="m412.836 285.4h-2.8a.777.777 0 0 0 -.777.776v17.39a.777.777 0 0 0 .777.776h2.8a.777.777 0 0 0 .777-.776v-17.39a.777.777 0 0 0 -.777-.776"/><path d="m432.1 285.4h-2.8a.776.776 0 0 0 -.777.776v10.332l-7.97-10.762a.776.776 0 0 0 -.06-.079v-.005c-.015-.017-.031-.033-.047-.048l-.014-.013c-.014-.012-.027-.024-.042-.035l-.02-.016-.04-.027-.024-.014a.444.444 0 0 0 -.041-.024l-.025-.012a.465.465 0 0 0 -.045-.018l-.025-.009a.356.356 0 0 0 -.046-.015l-.027-.007-.045-.01-.032-.005-.041-.005h-.041-.027-2.8a.777.777 0 0 0 -.777.776v17.39a.777.777 0 0 0 .777.776h2.8a.777.777 0 0 0 .778-.776v-10.327l7.979 10.776a.775.775 0 0 0 .2.191l.008.007.048.029.022.012.038.018.037.016.024.009.053.017h.011a.765.765 0 0 0 .2.027h2.8a.776.776 0 0 0 .777-.776v-17.39a.776.776 0 0 0 -.777-.776"/><path d="m406.088 299.992h-7.607v-13.81a.776.776 0 0 0 -.776-.777h-2.8a.778.778 0 0 0 -.778.777v17.388a.776.776 0 0 0 .218.537l.011.012.011.01a.773.773 0 0 0 .537.217h11.184a.776.776 0 0 0 .776-.777v-2.8a.777.777 0 0 0 -.776-.778"/><path d="m447.563 289.76a.777.777 0 0 0 .776-.778v-2.8a.777.777 0 0 0 -.776-.778h-11.184a.773.773 0 0 0 -.539.219l-.009.009-.013.013a.78.78 0 0 0 -.215.536v17.389a.775.775 0 0 0 .217.537l.011.012.011.01a.775.775 0 0 0 .537.217h11.184a.776.776 0 0 0 .776-.777v-2.8a.776.776 0 0 0 -.776-.777h-7.606v-2.94h7.606a.776.776 0 0 0 .776-.777v-2.8a.777.777 0 0 0 -.776-.778h-7.606v-2.937z"/></g></svg>