<svg fill="none" height="36" viewBox="0 0 40 41" width="36" xmlns="http://www.w3.org/2000/svg"><circle cx="20" cy="20.5" fill="#054f77" r="20"/><g fill="#fff"><path d="m21.2853 23.8522c-1.0052.0021-1.9838-.3249-2.7875-.9313-.1191-.0887-.1985-.2211-.2207-.3683-.0222-.1473.0145-.2974.1021-.4176.014-.0202.6516-.6646.6516-.6646.0883-.0949.2071-.1555.3355-.171s.2582.015.3664.0861c.5158.37 1.1454.5445 1.7771.4928.6317-.0518 1.2247-.3266 1.674-.7756l3.0168-3.0303c.9131-.9172 1.1383-2.3778.4163-3.4525-.8205-1.2404-2.6145-1.7051-4.0364-.4505-.1529.1353-1.7879 1.7374-1.7879 1.7374-.0505.0507-.1104.0909-.1763.1183-.0659.0275-.1365.0416-.2079.0416-.0713 0-.142-.0141-.2079-.0416-.0659-.0274-.1258-.0676-.1762-.1183l-.6034-.6061c-.1021-.103-.1595-.2425-.1595-.3879s.0574-.2849.1595-.3879l1.5567-1.5616c1.6994-1.7131 4.4789-1.9959 6.3352-.4545.9472.7822 1.5464 1.9102 1.6659 3.1361.1196 1.2259-.2503 2.4492-1.0284 3.4012-.0965.1172-3.4029 3.4485-3.4029 3.4485-.8659.868-2.0388 1.3562-3.2621 1.3576z"/><path d="m18.7211 17.1431c1.008-.0035 1.9893.325 2.7935.9353.119.0883.1983.2204.2206.3673.0222.147-.0144.2967-.1019.4166-.0141.0222-.6516.6667-.6516.6667-.0883.0935-.2064.1532-.3338.1687s-.2562-.0142-.3641-.0839c-.5157-.3703-1.1453-.5451-1.7772-.4933-.6318.0517-1.2249.3267-1.674.7761l-3.0167 3.0303c-.9232.9152-1.1504 2.3758-.4264 3.4526.8185 1.2383 2.6145 1.705 4.0364.4505.1529-.1354 1.7879-1.7394 1.7879-1.7394.0505-.0507.1104-.0909.1763-.1184.0659-.0274.1365-.0416.2079-.0416.0713 0 .142.0142.2079.0416.0659.0275.1258.0677.1762.1184l.6034.606c.1013.1039.1581.2435.1581.3889s-.0568.2851-.1581.3889l-1.5567 1.5616c-1.7014 1.7132-4.4809 1.996-6.3372.4546-.9481-.7814-1.5485-1.909-1.6691-3.1349-.1207-1.2259.2482-2.4497 1.0255-3.4025.0966-.1192 3.4029-3.4485 3.4029-3.4485.4289-.4322.9386-.775 1.4998-1.0087s1.1629-.3536 1.7704-.3529z"/></g></svg>