<svg width="20" height="27" viewBox="0 0 20 27" fill="none" xmlns="http://www.w3.org/2000/svg">
<path d="M7.75684 21.3364C8.11377 21.3364 8.396 21.1787 8.59521 20.8716L16.4395 8.52002C16.5889 8.2793 16.647 8.09668 16.647 7.90576C16.647 7.44922 16.3481 7.15039 15.8916 7.15039C15.5596 7.15039 15.377 7.2583 15.1777 7.57373L7.72363 19.4521L3.85547 14.3887C3.64795 14.0981 3.44043 13.9819 3.1416 13.9819C2.66846 13.9819 2.34473 14.3057 2.34473 14.7622C2.34473 14.9531 2.42773 15.1689 2.58545 15.3682L6.89355 20.855C7.14258 21.1787 7.3999 21.3364 7.75684 21.3364Z" fill="#009045"/>
</svg>
