<svg enable-background="new 0 0 557.1 236.4" viewBox="0 0 557.1 236.4" xmlns="http://www.w3.org/2000/svg" xmlns:xlink="http://www.w3.org/1999/xlink"><filter id="a" filterUnits="userSpaceOnUse" height="236.3" width="236.3" x="0" y=".1"><feColorMatrix color-interpolation-filters="sRGB" result="source" type="matrix" values="-1 0 0 0 1  0 -1 0 0 1  0 0 -1 0 1  0 0 0 1 0"/></filter><radialGradient id="b" cx="86.0721" cy="53.0224" gradientUnits="userSpaceOnUse" r="180.6575"><stop offset=".1179" stop-color="#00b8ee"/><stop offset=".5171" stop-color="#004097"/><stop offset=".8393" stop-color="#181878"/><stop offset="1" stop-color="#005bab"/></radialGradient><mask id="c" height="236.3" maskUnits="userSpaceOnUse" width="236.3" x="0" y=".1"><g filter="url(#a)"><image height="241" overflow="visible" transform="translate(-2.8512 -2.0559)" width="242" xlink:href="CC66D2BEF0F7EE71.jpg"/></g></mask><clipPath id="d"><circle cx="118.1" cy="118.1" r="118.1"/></clipPath><linearGradient id="e" gradientUnits="userSpaceOnUse" x1="147.7918" x2="166.7119" y1="132.5828" y2="151.5029"><stop offset="0" stop-color="#20aee5"/><stop offset=".5" stop-color="#fcfdff"/><stop offset="1" stop-color="#20aee5"/></linearGradient><linearGradient id="f" gradientTransform="matrix(0 -1 1 0 242.3992 422.3466)" gradientUnits="userSpaceOnUse" x1="273.8358" x2="286.7717" y1="-91.6153" y2="-78.6794"><stop offset="0" stop-color="#21ade5"/><stop offset=".5" stop-color="#fcfdff"/><stop offset="1" stop-color="#21ade5"/></linearGradient><radialGradient id="g" cx="154.4019" cy="137.5838" gradientUnits="userSpaceOnUse" r="6.84"><stop offset="0" stop-color="#200000"/><stop offset=".73" stop-color="#9b4121"/><stop offset="1" stop-color="#200000"/></radialGradient><radialGradient id="h" cx="154.4019" cy="137.5838" gradientUnits="userSpaceOnUse" r="3.42"><stop offset=".15" stop-color="#fff"/><stop offset=".2104" stop-color="#e4d2d2"/><stop offset=".2911" stop-color="#c59b9c"/><stop offset=".3609" stop-color="#ad7374"/><stop offset=".4161" stop-color="#9f5b5c"/><stop offset=".45" stop-color="#9a5253"/><stop offset=".5762" stop-color="#693132"/><stop offset=".6964" stop-color="#411617"/><stop offset=".7916" stop-color="#290606"/><stop offset=".85" stop-color="#200000"/><stop offset=".8572" stop-color="#240201"/><stop offset=".8646" stop-color="#310803"/><stop offset=".8722" stop-color="#451108"/><stop offset=".8799" stop-color="#621e0e"/><stop offset=".8876" stop-color="#883016"/><stop offset=".8952" stop-color="#b5441f"/><stop offset=".9" stop-color="#d55326"/><stop offset=".9034" stop-color="#c64c23"/><stop offset=".915" stop-color="#9a381a"/><stop offset=".927" stop-color="#752712"/><stop offset=".9395" stop-color="#56190b"/><stop offset=".9525" stop-color="#3e0e06"/><stop offset=".9663" stop-color="#2d0603"/><stop offset=".9813" stop-color="#230101"/><stop offset="1" stop-color="#200000"/></radialGradient><radialGradient id="i" cx="154.4019" cy="137.5838" gradientUnits="userSpaceOnUse" r="2.85"><stop offset=".15" stop-color="#fff"/><stop offset=".2824" stop-color="#c2c2c2"/><stop offset=".4253" stop-color="#888"/><stop offset=".5636" stop-color="#575757"/><stop offset=".6936" stop-color="#313131"/><stop offset=".8134" stop-color="#161616"/><stop offset=".9192" stop-color="#060606"/><stop offset="1"/></radialGradient><circle cx="118.1" cy="118.3" fill="url(#b)" r="118.1"/><g mask="url(#c)" opacity=".7"><circle cx="118.1" cy="118.3" fill="#1b274f" r="118.1"/></g><path d="m118.1.1c65.2 0 118.1 52.9 118.1 118.1s-52.9 118.1-118.1 118.1-118.1-52.8-118.1-118 52.9-118.2 118.1-118.2m0-4.3c-32.7 0-63.4 12.7-86.6 35.9-23.1 23.1-35.8 53.9-35.8 86.6s12.7 63.4 35.9 86.6c23.1 23.1 53.9 35.9 86.6 35.9s63.4-12.7 86.6-35.9 35.9-53.9 35.9-86.6-12.7-63.4-35.9-86.6-54-35.9-86.7-35.9z" fill="#fff"/><g clip-path="url(#d)"><image height="170" opacity=".5" overflow="visible" transform="translate(51.6446 49.4401)" width="160" xlink:href="CC66D2BEF0F7EE73.png"/><g fill="#fff"><path d="m69 174.5c2.2-2.2 4-6.6 4-9.7v-14.6c0-3.1 0-5.7 0-5.7s-1.8 1.8-4 4l-7.3 7.3c-2.2 2.2-4 6.6-4 9.7v14.6 5.7s1.8-1.8 4-4z"/><ellipse cx="104.5" cy="159.8" rx="10.2" ry="10.2" transform="matrix(.7071 -.7071 .7071 .7071 -82.389 120.689)"/><path d="m113.9 197.2c1-1.9 1.7-4 2-6.2h-21.6v-51.6h21.3s0-2.4 0-9.3-6.2-6-6.2-6h-15v-15.3h4.8 16.8s0 0 0 0 0-2.6 0-5.7v-10.3c0-3.1-1.8-7.5-4-9.7l-21-20.8c-2.2-2.2-5.8-2.2-8 0l-20.9 20.9c-2.2 2.2-4 6.6-4 9.7v10.1 5.7s1.8-1.8 4-4l20.9-20.8c2.2-2.2 5.8-2.2 8 0l9.6 9.5s-11.2 0-17 0c-5.2 0-8.4 3.9-8.4 3.9l-13.2 13.2h17v13.6h-21.3v9.6s-.6 5.7 6 5.7 15.3 0 15.3 0v51.6h-21.3s4.9 15.3 13.9 15.3h.8c1.5 0 2.1 0 2 0h26.8c.9 0 1.7-.1 2.5-.3 3.7-1.3 6.9-3.8 9.1-7 .1-.1.1-.2.2-.3.2-.3.4-.6.6-1 .1-.1.2-.3.3-.5z"/><path d="m179.2 191v-21h.1 15.3v-13.2-.1-14.2-5.3-23.2s0 0 0-.1h-29.3-44.6v48.3s-.2 7.7 7.3 7.7h7.9v21h-14.9c-.6 6-3.4 11.4-7.5 15.3h7.2 15.9c15.3 0 14.6-14.7 14.6-14.7v-21.5h12.7v36.3h14.7c9.4 0 20.3-15.3 20.3-15.3zm-21.7-31.4c-4.8 0-9.1-1.9-12.3-5h-9.2l-.1-25.5h9.3c3.2-3.1 7.5-5 12.3-5s9.1 1.9 12.3 5h1.1 8.4v25.5h-9.6c-3.1 3.1-7.5 5-12.2 5z"/><path d="m127 108.8h67.6c0-2.8 0-6.4 0-9.5 0-6.3-6.8-5.8-6.8-5.8h-4.7v-15.3h11.5v-8.4s.4-6.9-7.4-6.9c-4.3 0-22 0-22 0v-6.9h-15.2v6.9h-29.3v10.2s-.2 5.1 6.5 5.1h5v15.3h-11.5v9.8c-.1-.1-.2 5.5 6.3 5.5zm20.4-30.6h20.4v15.3h-20.4z"/></g><circle cx="157.3" cy="142" fill="url(#e)" r="13.4"/><circle cx="157.3" cy="142" fill="url(#f)" r="9.1" stroke="#1d2087"/><path d="m154.4 137.6 1.9 2.8" fill="none"/><circle cx="154.4" cy="137.6" fill="none" r="2.8"/><circle cx="154.4" cy="137.6" fill="none" r="3.4"/><path d="m154.4 137.6v.3-.3-.3.3h-.3.3.3-.3l14.8 6.7-14.8-6.7-14.8-6.7 14.8 6.7-6.7 14.8 6.7-14.8 6.7-14.8-6.7 14.8 1.8 2.8-1.8-2.8-1.8-2.9 1.8 2.9-2.8 1.8 2.8-1.8 2.8-1.9-2.8 1.9 12.6 8.5-12.6-8.5-12.6-8.5 12.6 8.5-8.5 12.6 8.5-12.6 8.5-12.6-8.5 12.6 11.5 7.5-11.5-7.5-11.5-7.5 11.5 7.5-7.5 11.5 7.5-11.5 7.5-11.5-7.5 11.5-4.3 10.6 4.3-10.6 4.3-10.6-4.3 10.6-10.6-4.3 10.6 4.3 10.6 4.3-10.6-4.3 5.6 15.7-5.6-15.7-5.6-15.7 5.6 15.7-15.7 5.6 15.7-5.6 15.7-5.6-15.7 5.6 1.1 4.1-1.1-4.1-1.1-4.2 1.1 4.2-4.1 1 4.1-1 4.1-1.1-4.1 1.1-.8 15.2.8-15.2.8-15.2-.8 15.2-15.2-.8 15.2.8 15.2.8-15.2-.8-1.8 7 1.8-7 1.8-7-1.8 7-7-1.9 7 1.9 7 1.8-7-1.8 11.1 11.8-11.1-11.8-11.1-11.8 11.1 11.8-11.8 11 11.8-11 11.8-11.1-11.8 11.1-2.8 10.8 2.8-10.8 2.8-10.8-2.8 10.8-10.8-2.8 10.8 2.8 10.8 2.8-10.8-2.8-4.3 11 4.3-11 4.3-11-4.3 11-11-4.3 11 4.3 11 4.3-11-4.3-2.9 10.2 2.9-10.2 2.9-10.2-2.9 10.2-10.2-3 10.2 3 10.2 2.9-10.2-2.9-.7 7.6.7-7.6.7-7.6-.7 7.6-7.6-.7 7.6.7 7.6.7" fill="none"/><circle cx="154.4" cy="137.6" fill="url(#g)" opacity=".15" r="6.8"/><circle cx="154.4" cy="137.6" fill="url(#h)" opacity=".5" r="3.4"/><circle cx="154.4" cy="137.6" fill="url(#i)" r="2.8"/><path d="m154.4 137.6v.3-.3-.3.3h-.3.3.3-.3l14.8 6.7-14.8-6.7-14.8-6.7 14.8 6.7-6.7 14.8 6.7-14.8 6.7-14.8-6.7 14.8 1.8 2.8-1.8-2.8-1.8-2.9 1.8 2.9-2.8 1.8 2.8-1.8 2.8-1.9-2.8 1.9 12.6 8.5-12.6-8.5-12.6-8.5 12.6 8.5-8.5 12.6 8.5-12.6 8.5-12.6-8.5 12.6 11.5 7.5-11.5-7.5-11.5-7.5 11.5 7.5-7.5 11.5 7.5-11.5 7.5-11.5-7.5 11.5-4.3 10.6 4.3-10.6 4.3-10.6-4.3 10.6-10.6-4.3 10.6 4.3 10.6 4.3-10.6-4.3 5.6 15.7-5.6-15.7-5.6-15.7 5.6 15.7-15.7 5.6 15.7-5.6 15.7-5.6-15.7 5.6 1.1 4.1-1.1-4.1-1.1-4.2 1.1 4.2-4.1 1 4.1-1 4.1-1.1-4.1 1.1-.8 15.2.8-15.2.8-15.2-.8 15.2-15.2-.8 15.2.8 15.2.8-15.2-.8-1.8 7 1.8-7 1.8-7-1.8 7-7-1.9 7 1.9 7 1.8-7-1.8 11.1 11.8-11.1-11.8-11.1-11.8 11.1 11.8-11.8 11 11.8-11 11.8-11.1-11.8 11.1-2.8 10.8 2.8-10.8 2.8-10.8-2.8 10.8-10.8-2.8 10.8 2.8 10.8 2.8-10.8-2.8-4.3 11 4.3-11 4.3-11-4.3 11-11-4.3 11 4.3 11 4.3-11-4.3-2.9 10.2 2.9-10.2 2.9-10.2-2.9 10.2-10.2-3 10.2 3 10.2 2.9-10.2-2.9-.7 7.6.7-7.6.7-7.6-.7 7.6-7.6-.7 7.6.7 7.6.7" fill="none" opacity=".03" stroke="#fff" stroke-miterlimit="10" stroke-width="2"/></g><path d="m316.2 167.4h39.7v7.5h-23.5v7.9h22.1v7.5h-22.1v9h24.6v7.5h-40.7v-39.4z" fill="#231815"/><path d="m364.3 167.4h23.9c16 0 22.8 4.8 22.8 18.5 0 14.3-3.2 21-24.4 21h-22.3zm16.1 32.7h4.3c7.5 0 10.1-1.7 10.1-13.6 0-9.6-1.3-12.2-9.9-12.2h-4.5z" fill="#231815"/><path d="m419.7 167.4h16.1v39.6h-16.1z" fill="#231815"/><path d="m458.8 167.4h20.2l17.1 39.5h-16.7l-2.5-7.5h-16.4l-2.4 7.5h-16.7zm9.8 7.2h-.2l-5.7 17.6h11.7z" fill="#231815"/><g fill="#004ea2"><path d="m317.1 115.4h16.1v39.5h-16.1z"/><path d="m343.5 115.4h27.1c13.7 0 18.5 4.9 18.5 10.3 0 5.8-4 8.6-11.5 9.6v.1c10.3.8 10.9 4.5 11.1 9.9.3 7.8.8 8.6 3.1 9.1v.5h-17.4c-1.3-1.3-1.7-3.5-1.7-8 0-6.9-1.6-8.3-6.7-8.3h-6.2v16.3h-16.1v-39.5zm16.2 16.7h5c6.5 0 8.3-2.8 8.3-5.1 0-3-1.9-5-8.4-5h-4.9z"/><path d="m398.7 115.4h27.1c13.7 0 18.5 4.9 18.5 10.3 0 5.8-4 8.6-11.5 9.6v.1c10.3.8 10.9 4.5 11 9.9.3 7.8.8 8.6 3.1 9.1v.5h-17.4c-1.2-1.3-1.7-3.5-1.7-8 0-6.9-1.6-8.3-6.7-8.3h-6.2v16.3h-16.1v-39.5zm16.1 16.7h5c6.5 0 8.3-2.8 8.3-5.1 0-3-1.9-5-8.4-5h-4.9z"/><path d="m476.4 155.7c-21.2 0-24.1-8-24.1-20.5s2.9-20.5 24.1-20.5c22.9 0 24.1 9.6 24.1 20.5s-1.2 20.5-24.1 20.5zm-.1-6.2c6.5 0 7.5-3.5 7.5-14.3 0-10.9-1-14.3-7.5-14.3-6.3 0-7.3 3.5-7.3 14.3s1 14.3 7.3 14.3z"/><path d="m509 115.4h27.1c13.7 0 18.5 4.9 18.5 10.3 0 5.8-4 8.6-11.5 9.6v.1c10.3.8 10.9 4.5 11.1 9.9.3 7.8.8 8.6 3.1 9.1v.5h-17.4c-1.2-1.3-1.7-3.5-1.7-8 0-6.9-1.6-8.3-6.7-8.3h-6.2v16.3h-16.3zm16.1 16.7h5c6.5 0 8.3-2.8 8.3-5.1 0-3-1.9-5-8.4-5h-4.9z"/><path d="m257.9 161.3-4-25.7h-.2v25.7h-14.4v-46h23.7l6.5 46zm30.2 0v-25.7h-.1l-3.8 25.7h-10.6l6.2-46h23.4v46z"/></g><path d="m239.3 161.3h14.4v45.7h-14.4zm25.7 45.7-7.1-45.7h11.5l2 14.2h.2l1.9-14.2h10.6l-6.7 45.7zm23.1-45.7h15v45.7h-15z" fill="#231815"/></svg>