<svg fill="none" height="34" viewBox="0 0 28 34" width="28" xmlns="http://www.w3.org/2000/svg"><path d="m14 23.9062c.25 0 .4531-.0781.6875-.3124l5.5-5.375c.1719-.1876.2813-.375.2813-.625 0-.5-.3907-.8594-.875-.8594-.2344 0-.4844.0937-.6563.2968l-2.6563 2.75-1.3906 1.4376.0625-2.2657v-17.31248c0-.5-.4375-.937495-.9531-.937495s-.9531.437495-.9531.937495v17.31248l.0625 2.2813-1.3906-1.4532-2.6563-2.75c-.17188-.2031-.4375-.2968-.67188-.2968-.5 0-.875.3594-.875.8594 0 .25.10938.4374.29688.625l5.5 5.375c.2344.2343.4375.3124.6875.3124zm-9 10.0626h17.9844c3.0468 0 4.6094-1.5626 4.6094-4.5626v-15.9687c0-3.0156-1.5626-4.57812-4.6094-4.57812h-4.4532v1.93752h4.4063c1.7344 0 2.7187.9375 2.7187 2.7343v15.7657c0 1.8125-.9843 2.7343-2.7187 2.7343h-17.90625c-1.75 0-2.70313-.9218-2.70313-2.7343v-15.7657c0-1.7968.95313-2.7343 2.70313-2.7343h4.4375v-1.93752h-4.46875c-3.04688 0-4.609375 1.54682-4.609375 4.57812v15.9687c0 3.0157 1.562495 4.5626 4.609375 4.5626z" fill="#fff"/></svg>