<svg width="20" height="20" viewBox="0 0 20 20" fill="none" xmlns="http://www.w3.org/2000/svg">
<path d="M2.00195 15.3662C2.00195 15.8057 2.29492 15.9888 2.62451 15.9888C2.81494 15.9888 2.9834 15.8862 3.1958 15.7397C3.97949 15.1025 5.08545 14.7144 6.25732 14.7217C7.3999 14.729 8.54248 15.1685 9.37744 16.0181C9.61182 16.2451 9.79492 16.311 10 16.311C10.2051 16.311 10.3955 16.2378 10.6226 16.0181C11.4648 15.1831 12.5928 14.729 13.7427 14.7217C14.9146 14.7144 16.0205 15.1025 16.8042 15.7397C17.0166 15.8862 17.1777 15.9888 17.3755 15.9888C17.7051 15.9888 17.998 15.8057 17.998 15.3662V5.43457C17.998 5.31006 17.9834 5.22217 17.9102 5.09766C17.251 3.99902 15.625 3.11279 13.7207 3.11279C12.0801 3.11279 10.7324 3.7793 10 4.73877C9.26758 3.7793 7.91992 3.11279 6.2793 3.11279C4.375 3.11279 2.74902 3.99902 2.08984 5.09766C2.0166 5.22217 2.00195 5.31006 2.00195 5.43457V15.3662ZM2.91016 14.8315V5.54443C3.51074 4.62891 4.86572 4.021 6.2793 4.021C7.73682 4.021 8.96729 4.62891 9.5459 5.61035V14.978C8.82812 14.3701 7.6123 13.8135 6.2793 13.8135C4.88037 13.8135 3.66455 14.231 2.91016 14.8315ZM10.4541 14.978V5.61035C11.0254 4.62891 12.2632 4.021 13.7207 4.021C15.1343 4.021 16.4819 4.62891 17.0898 5.54443V14.8315C16.3428 14.231 15.1196 13.8135 13.7207 13.8135C12.3877 13.8135 11.1719 14.3701 10.4541 14.978Z" fill="#fff"/>
</svg>
