<svg width="16" height="19" viewBox="0 0 16 19" fill="none" xmlns="http://www.w3.org/2000/svg">
<path d="M7.9917 13.2939C8.12451 13.2939 8.24072 13.2524 8.36523 13.1279L11.2788 10.2725C11.3784 10.1729 11.4282 10.0732 11.4282 9.94043C11.4282 9.6748 11.229 9.48389 10.9634 9.48389C10.8389 9.48389 10.7061 9.53369 10.6147 9.6416L9.20361 11.1025L8.46484 11.8662L8.49805 10.6626V1.46533C8.49805 1.19971 8.27393 0.967285 7.9917 0.967285C7.71777 0.967285 7.48535 1.19971 7.48535 1.46533V10.6626L7.52686 11.8745L6.77979 11.1025L5.36865 9.6416C5.27734 9.53369 5.13623 9.48389 5.01172 9.48389C4.74609 9.48389 4.55518 9.6748 4.55518 9.94043C4.55518 10.0732 4.60498 10.1729 4.70459 10.2725L7.62646 13.1279C7.75098 13.2524 7.86719 13.2939 7.9917 13.2939ZM3.21875 18.6396H12.7729C14.3916 18.6396 15.2217 17.8096 15.2217 16.2158V7.73242C15.2217 6.13037 14.3916 5.30029 12.7729 5.30029H10.4072V6.32959H12.748C13.6694 6.32959 14.1924 6.82764 14.1924 7.78223V16.1577C14.1924 17.1206 13.6694 17.6104 12.748 17.6104H3.23535C2.30566 17.6104 1.79932 17.1206 1.79932 16.1577V7.78223C1.79932 6.82764 2.30566 6.32959 3.23535 6.32959H5.59277V5.30029H3.21875C1.6001 5.30029 0.77002 6.12207 0.77002 7.73242V16.2158C0.77002 17.8179 1.6001 18.6396 3.21875 18.6396Z" fill="white" fill-opacity="0.66"/>
</svg>
