<svg fill="none" height="13" viewBox="0 0 20 13" width="20" xmlns="http://www.w3.org/2000/svg"><path d="m10 12.9448c5.8667 0 9.9243-4.74607 9.9243-6.22556 0-1.48682-4.0649-6.225588-9.9243-6.225588-5.79346 0-9.9316406 4.738768-9.9316406 6.225588 0 1.47949 4.1381806 6.22556 9.9316406 6.22556zm0-2.146c-2.28516 0-4.09424-1.853-4.10156-4.07956-.00733-2.28516 1.8164-4.07959 4.10156-4.07959 2.2632 0 4.0942 1.79443 4.0942 4.07959 0 2.22656-1.831 4.07956-4.0942 4.07956zm0-2.60739c.813 0 1.4868-.66651 1.4868-1.47217 0-.81299-.6738-1.47949-1.4868-1.47949-.82031 0-1.49414.6665-1.49414 1.47949 0 .80566.67383 1.47217 1.49414 1.47217z" fill="#054f77"/></svg>