<svg fill="none" height="15" viewBox="0 0 22 15" width="22" xmlns="http://www.w3.org/2000/svg"><path d="m16.6909 14.062c.2197.2271.5713.2417.7984 0 .2343-.2417.2197-.5713 0-.7983l-12.24614-12.2388c-.21972-.219724-.58593-.219724-.80566 0-.2124.2124-.2124.58594 0 .79834zm-5.6909-12.61962c-1.27441 0-2.43164.21973-3.5083.57862l.9668.95947c.80566-.2417 1.6333-.38086 2.5415-.38086 4.8193 0 8.7231 4.24805 8.7231 5.11963 0 .59326-1.2817 2.18994-3.3105 3.43506l.9009.9009c2.3144-1.5015 3.6914-3.4717 3.6914-4.33596 0-1.50147-4.0869-6.27686-10.0049-6.27686zm0 12.55372c1.3623 0 2.6074-.2417 3.7427-.6299l-.9595-.9595c-.8716.271-1.7944.4322-2.7832.4322-4.82666 0-8.73047-4.08695-8.73047-5.11966 0-.5127 1.35498-2.21924 3.51563-3.51563l-.90821-.9082c-2.43896 1.50879-3.889157 3.5376-3.889157 4.42383 0 1.49414 4.167477 6.27686 10.012207 6.27686zm3.7573-4.67286c.2271-.49072.3516-1.04004.3516-1.604 0-2.29248-1.8311-4.10156-4.1089-4.10156-.5786 0-1.12061.12451-1.61133.33691zm-3.7573 2.49756c.6445 0 1.2524-.1611 1.7944-.4248l-5.49313-5.49317c-.271.54199-.42481 1.15723-.42481 1.81641.00733 2.23388 1.83106 4.10156 4.12354 4.10156z" fill="#054f77"/></svg>