<svg width="18" height="18" viewBox="0 0 18 18" fill="none" xmlns="http://www.w3.org/2000/svg">
<path fill-rule="evenodd" clip-rule="evenodd" d="M8.8592 3.62558C10.5228 3.62558 11.645 4.34417 12.2848 4.94464L14.7851 2.50339C13.2495 1.07604 11.2512 0.199951 8.8592 0.199951C5.3942 0.199951 2.4017 2.18839 0.944824 5.08245L3.80936 7.30714C4.52795 5.17104 6.51639 3.62558 8.8592 3.62558Z" fill="#EA4335"/>
<path fill-rule="evenodd" clip-rule="evenodd" d="M17.3644 9.2562C17.3644 8.52776 17.3053 7.9962 17.1773 7.44495H8.85938V10.7328H13.7419C13.6434 11.5498 13.1119 12.7803 11.9306 13.6071L14.7263 15.7728C16.3997 14.2273 17.3644 11.9534 17.3644 9.2562Z" fill="#4285F4"/>
<path fill-rule="evenodd" clip-rule="evenodd" d="M3.81938 10.8115C3.63234 10.2603 3.52406 9.66965 3.52406 9.05933C3.52406 8.44902 3.63234 7.8584 3.80953 7.30715L0.945 5.08246C0.344531 6.2834 0 7.63199 0 9.05933C0 10.4867 0.344531 11.8353 0.945 13.0362L3.81938 10.8115Z" fill="#FBBC05"/>
<path fill-rule="evenodd" clip-rule="evenodd" d="M8.85961 17.9187C11.2516 17.9187 13.2598 17.1312 14.7265 15.7728L11.9309 13.6071C11.1827 14.1289 10.1787 14.4931 8.85961 14.4931C6.5168 14.4931 4.52836 12.9476 3.81961 10.8115L0.955078 13.0362C2.41195 15.9303 5.39461 17.9187 8.85961 17.9187Z" fill="#34A853"/>
</svg>
