<svg fill="none" height="18" viewBox="0 0 18 18" width="18" xmlns="http://www.w3.org/2000/svg"><g clip-rule="evenodd" fill-rule="evenodd"><path d="m8.8592 3.62558c1.6636 0 2.7858.71859 3.4256 1.31906l2.5003-2.44125c-1.5356-1.42735-3.5339-2.303439-5.9259-2.303439-3.465 0-6.4575 1.988439-7.914376 4.882499l2.864536 2.22469c.71859-2.1361 2.70703-3.68156 5.04984-3.68156z" fill="#ea4335"/><path d="m17.3644 9.2562c0-.72844-.0591-1.26-.1871-1.81125h-8.31792v3.28785h4.88252c-.0985.817-.63 2.0475-1.8113 2.8743l2.7957 2.1657c1.6734-1.5455 2.6381-3.8194 2.6381-6.5166z" fill="#4285f4"/><path d="m3.81938 10.8115c-.18704-.5512-.29532-1.14185-.29532-1.75217 0-.61031.10828-1.20093.28547-1.75218l-2.86453-2.22469c-.600469 1.20094-.945 2.54953-.945 3.97687 0 1.42737.344531 2.77597.945 3.97687z" fill="#fbbc05"/><path d="m8.85961 17.9187c2.39199 0 4.40019-.7875 5.86689-2.1459l-2.7956-2.1657c-.7482.5218-1.7522.886-3.07129.886-2.34281 0-4.33125-1.5455-5.04-3.6816l-2.864532 2.2247c1.456872 2.8941 4.439532 4.8825 7.904532 4.8825z" fill="#34a853"/></g></svg>