<svg fill="none" height="44" viewBox="0 0 44 44" width="44" xmlns="http://www.w3.org/2000/svg"><circle cx="22" cy="22" fill="#054f77" r="22"/><path d="m15.2788 27.3153c-.3645.3645-.3818 1.0154.0087 1.3972.3818.3819 1.0327.3732 1.3971.0087l5.3111-5.3197 5.3196 5.3197c.3732.3732 1.0154.3732 1.3972-.0087.3732-.3905.3819-1.024 0-1.3972l-5.311-5.3196 5.311-5.3111c.3819-.3731.3819-1.0153 0-1.3971-.3905-.3732-1.024-.3819-1.3972-.0087l-5.3196 5.3197-5.3111-5.3197c-.3644-.3645-1.024-.3818-1.3971.0087-.3819.3818-.3732 1.0327-.0087 1.3971l5.3197 5.3111z" fill="#fff"/></svg>