<svg width="16" height="16" viewBox="0 0 16 16" fill="none" xmlns="http://www.w3.org/2000/svg">
<path d="M7.75684 15.0376C11.3877 15.0376 14.3774 12.0479 14.3774 8.41699C14.3774 4.79248 11.3813 1.79639 7.75049 1.79639C4.12598 1.79639 1.13623 4.79248 1.13623 8.41699C1.13623 12.0479 4.12598 15.0376 7.75684 15.0376ZM5.94775 11.7559C5.54785 12.0542 5.11621 11.7559 5.2749 11.2671L5.98584 9.14697L4.16406 7.83936C3.80225 7.57275 3.90381 7.02686 4.42432 7.0332L6.66504 7.05859L7.34424 4.91943C7.49658 4.44336 8.01074 4.44336 8.16309 4.91943L8.84863 7.05859L11.0894 7.0332C11.6226 7.02686 11.6987 7.5791 11.3433 7.83301L9.52148 9.14062L10.2324 11.2671C10.3975 11.7622 9.96582 12.0542 9.56592 11.7559L7.75684 10.4292L5.94775 11.7559Z" fill="#EAC151"/>
</svg>
