<svg width="9" height="8" viewBox="0 0 9 8" fill="none" xmlns="http://www.w3.org/2000/svg">
<path d="M3.81626 4.00001L3.81626 6.32261C3.81626 6.52794 3.73471 6.72488 3.5895 6.87003C3.44429 7.01524 3.24741 7.09679 3.04207 7.09679L1.23561 7.09679C1.03028 7.09679 0.833334 7.01524 0.688187 6.87003C0.542977 6.72488 0.461426 6.52794 0.461426 6.32261L0.461426 2.96774C0.461426 2.51471 0.580655 2.06972 0.807174 1.67741C1.03363 1.28511 1.35945 0.959281 1.75176 0.732828C2.14407 0.506313 2.58906 0.38708 3.04209 0.38708C3.17896 0.38708 3.31025 0.441444 3.40704 0.53823C3.50383 0.635017 3.55819 0.766312 3.55819 0.90318C3.55531 1.04035 3.49902 1.17098 3.4014 1.26734C3.30377 1.36371 3.17236 1.41825 3.03519 1.41933C2.62572 1.42113 2.23365 1.58507 1.94474 1.87525C1.65587 2.16544 1.49369 2.55828 1.49369 2.96775L1.49369 3.22577L3.04209 3.22577C3.24742 3.22577 3.4443 3.30737 3.58951 3.45253C3.73472 3.59774 3.81627 3.79467 3.81627 4.00001L3.81626 4.00001ZM7.68725 3.22584L6.13886 3.22584L6.13886 2.96776C6.13886 2.55829 6.30105 2.16545 6.58997 1.87526C6.87883 1.58508 7.27089 1.42116 7.68036 1.41935C7.81759 1.41827 7.94893 1.36372 8.04657 1.26736C8.14425 1.17099 8.20048 1.04036 8.20342 0.90319C8.20342 0.76632 8.14899 0.635032 8.05221 0.538241C7.95542 0.441454 7.82413 0.387092 7.68726 0.387092C7.23429 0.387092 6.78923 0.506319 6.39693 0.732839C6.00462 0.959292 5.67886 1.28512 5.45234 1.67742C5.22583 2.06973 5.10659 2.51473 5.10659 2.96776L5.10659 6.32262C5.10659 6.52795 5.18814 6.72489 5.33335 6.87004C5.47856 7.01525 5.67545 7.0968 5.88078 7.0968L7.68724 7.0968C7.89257 7.0968 8.08952 7.01526 8.23467 6.87004C8.37988 6.72489 8.46143 6.52795 8.46143 6.32262L8.46143 4.00002C8.46143 3.79469 8.37988 3.59774 8.23467 3.45254C8.08952 3.30739 7.89257 3.22578 7.68724 3.22578L7.68725 3.22584Z" fill="black"/>
</svg>
