<svg height="80pt" preserveAspectRatio="xMidYMid meet" viewBox="0 0 92 80" width="92pt" xmlns="http://www.w3.org/2000/svg"><g transform="matrix(.1 0 0 -.1 0 80)"><path d="m242 753c-103-58-181-139-213-220-21-54-24-76-27-295l-4-238h211 211v195 195h-101-102l6 36c9 56 49 107 119 153 34 22 66 42 71 44 6 2-79 177-86 177-1 0-40-21-85-47z"/><path d="m748 758c-43-22-102-64-133-93-100-97-125-189-125-472v-193h215 215v195 195h-98c-54 0-101 2-104 5s-1 24 4 45c14 52 69 115 134 152 30 16 54 33 54 36 0 4-19 44-43 89l-42 81z"/></g></svg>