<svg width="8" height="7" viewBox="0 0 8 7" fill="none" xmlns="http://www.w3.org/2000/svg">
<path d="M4.64517 3.09679V0.774195C4.64517 0.568863 4.72671 0.371918 4.87193 0.226771C5.01714 0.0815612 5.21402 1.0782e-05 5.41935 1.0782e-05L7.22582 1.0782e-05C7.43115 1.0782e-05 7.62809 0.0815566 7.77324 0.226771C7.91845 0.371921 8 0.568863 8 0.774195V4.12906C8 4.58209 7.88077 5.02708 7.65425 5.41939C7.4278 5.8117 7.10197 6.13752 6.70967 6.36397C6.31736 6.59049 5.87237 6.70972 5.41934 6.70972C5.28247 6.70972 5.15118 6.65536 5.05439 6.55857C4.9576 6.46178 4.90324 6.33049 4.90324 6.19362C4.90612 6.05645 4.9624 5.92582 5.06003 5.82946C5.15765 5.73309 5.28906 5.67855 5.42624 5.67747C5.8357 5.67567 6.22778 5.51174 6.51669 5.22155C6.80555 4.93136 6.96774 4.53852 6.96774 4.12905V3.87103L5.41934 3.87103C5.21401 3.87103 5.01712 3.78943 4.87192 3.64427C4.72671 3.49906 4.64515 3.30213 4.64515 3.09679L4.64517 3.09679ZM0.774172 3.87096L2.32257 3.87096V4.12904C2.32257 4.53851 2.16037 4.93135 1.87146 5.22154C1.5826 5.51172 1.19053 5.67564 0.781069 5.67746C0.643839 5.67854 0.512495 5.73308 0.41486 5.82945C0.317173 5.92581 0.260942 6.05644 0.258008 6.19361C0.258008 6.33048 0.312432 6.46177 0.40922 6.55856C0.506007 6.65535 0.637301 6.70971 0.774168 6.70971C1.22714 6.70971 1.67219 6.59048 2.0645 6.36396C2.45681 6.13751 2.78257 5.81169 3.00908 5.41938C3.2356 5.02707 3.35483 4.58208 3.35483 4.12905L3.35483 0.774184C3.35483 0.568852 3.27329 0.371907 3.12807 0.22676C2.98286 0.0815505 2.78598 0 2.58065 0L0.774184 0C0.568852 0 0.371908 0.0815459 0.22676 0.22676C0.0815505 0.37191 0 0.568852 0 0.774184L0 3.09678C0 3.30211 0.0815459 3.49906 0.22676 3.64427C0.371911 3.78942 0.568852 3.87103 0.774184 3.87103L0.774172 3.87096Z" fill="black"/>
</svg>
