<svg fill="none" height="72" viewBox="0 0 72 72" width="72" xmlns="http://www.w3.org/2000/svg" xmlns:xlink="http://www.w3.org/1999/xlink"><filter id="a" color-interpolation-filters="sRGB" filterUnits="userSpaceOnUse" height="72" width="72" x="0" y="0"><feFlood flood-opacity="0" result="BackgroundImageFix"/><feColorMatrix in="SourceAlpha" result="hardAlpha" type="matrix" values="0 0 0 0 0 0 0 0 0 0 0 0 0 0 0 0 0 0 127 0"/><feOffset/><feGaussianBlur stdDeviation="3"/><feComposite in2="hardAlpha" operator="out"/><feColorMatrix type="matrix" values="0 0 0 0 0 0 0 0 0 0 0 0 0 0 0 0 0 0 0.3 0"/><feBlend in2="BackgroundImageFix" mode="normal" result="effect1_dropShadow_5489_22475"/><feBlend in="SourceGraphic" in2="effect1_dropShadow_5489_22475" mode="normal" result="shape"/></filter><g filter="url(#a)"><circle cx="36" cy="36" fill="#fff" r="30"/><circle cx="36" cy="36" r="29.5" stroke="#054f77"/></g><path d="m42.5 41.0977c1.0156 0 1.875.3711 2.5781 1.1132.7031.7032 1.0547 1.543 1.0547 2.5196 0 1.0156-.3711 1.8945-1.1133 2.6367-.7031.7031-1.5429 1.0547-2.5195 1.0547s-1.8359-.3516-2.5781-1.0547c-.7031-.7422-1.0547-1.6211-1.0547-2.6367 0-.3907.0195-.6641.0586-.8203l-8.8477-5.1563c-.7422.6641-1.6015.9961-2.5781.9961-1.0156 0-1.8945-.3711-2.6367-1.1133s-1.1133-1.6211-1.1133-2.6367.3711-1.8945 1.1133-2.6367 1.6211-1.1133 2.6367-1.1133c.9766 0 1.8359.332 2.5781.9961l8.7891-5.0977c-.0781-.3906-.1172-.6836-.1172-.8789 0-1.0156.3711-1.8945 1.1133-2.6367s1.6211-1.1133 2.6367-1.1133 1.8945.3711 2.6367 1.1133 1.1133 1.6211 1.1133 2.6367c0 1.0157-.3711 1.8946-1.1133 2.6367-.7422.7422-1.6211 1.1133-2.6367 1.1133-.9375 0-1.7969-.3515-2.5781-1.0547l-8.7891 5.1563c.0781.3906.1172.6836.1172.8789s-.0391.4883-.1172.8789l8.9063 5.1563c.7031-.625 1.5234-.9375 2.4609-.9375z" fill="#054f77"/></svg>