<svg fill="none" height="52" viewBox="0 0 47 52" width="47" xmlns="http://www.w3.org/2000/svg"><path d="m14.4295 32.2372c-1.4178 1.5207-3.4388 2.4716-5.68193 2.4716-4.2896 0-7.766994-3.4774-7.766994-7.767s3.477394-7.767 7.766994-7.767c1.90043 0 3.64143.6825 4.99123 1.8158l17.1525-10.2341c-.257-.77174-.3962-1.59738-.3962-2.45551 0-4.28959 3.4774-7.766993 7.767-7.766993s7.767 3.477403 7.767 7.766993c0 4.28961-3.4774 7.76701-7.767 7.76701-1.9276 0-3.6912-.7022-5.0489-1.8648l-17.1183 10.2136c.272.7916.4197 1.6411.4197 2.525 0 .5513-.0575 1.0892-.1667 1.608l16.5421 9.8698c1.3951-1.3364 3.2877-2.1575 5.3721-2.1575 4.2896 0 7.767 3.4775 7.767 7.767 0 4.2896-3.4774 7.767-7.767 7.767s-7.767-3.4774-7.767-7.767c0-.7074.0946-1.3928.2719-2.0442z" fill="#fff"/></svg>