<svg fill="none" height="33" viewBox="0 0 32 33" width="32" xmlns="http://www.w3.org/2000/svg" xmlns:xlink="http://www.w3.org/1999/xlink"><linearGradient id="a" gradientUnits="userSpaceOnUse" x1="29.5486" x2="2.46238" y1="2.85134" y2="29.9375"><stop offset="0" stop-color="#f00"/><stop offset="1" stop-color="#850000"/></linearGradient><clipPath id="b"><path d="m0 .399902h32v32h-32z"/></clipPath><g clip-path="url(#b)"><path d="m32 24.0278v-15.25581c0-4.62378-3.7483-8.372088-8.3721-8.372088h-15.25581c-4.62378 0-8.37209381 3.748308-8.37209381 8.372088v15.25581c0 4.6238 3.74831381 8.3721 8.37209381 8.3721h15.25581c4.6238 0 8.3721-3.7483 8.3721-8.3721z" fill="url(#a)"/><path d="m24.5691 14.0689c0-1.0188-.4047-1.9959-1.1251-2.7163s-1.6975-1.1251-2.7162-1.1251h-9.8496c-1.01875 0-1.9958.4047-2.71618 1.1251-.72039.7204-1.12509 1.6975-1.12509 2.7163v4.5745c0 .5045.09935 1.004.2924 1.47.19304.4661.47599.8895.83269 1.2462s.78016.6397 1.24621.8327c.46605.1931.96557.2924 1.46997.2924h9.8496c.5044 0 1.0039-.0993 1.47-.2924.466-.193.8895-.476 1.2462-.8327s.6396-.7801.8327-1.2462c.193-.466.2924-.9655.2924-1.47zm-5.7784 2.6484-4.3776 2.1888c-.1751.0875-.7551 0-.7551-.2299v-4.476c0-.197.591-.3283.7551-.2298l4.2244 2.2982c.1422.0766.3283.3392.1532.4487z" fill="#fff"/></g></svg>