<svg fill="none" height="33" viewBox="0 0 32 33" width="32" xmlns="http://www.w3.org/2000/svg" xmlns:xlink="http://www.w3.org/1999/xlink"><linearGradient id="a" gradientUnits="userSpaceOnUse" x1="32.3283" x2="-9.06156" y1=".060641" y2="41.4505"><stop offset="0" stop-color="#fbe18a"/><stop offset=".21" stop-color="#fcbb45"/><stop offset=".38" stop-color="#f75274"/><stop offset=".52" stop-color="#d53692"/><stop offset=".74" stop-color="#8f39ce"/><stop offset="1" stop-color="#5b4fe9"/></linearGradient><clipPath id="b"><path d="m0 .399902h32v32h-32z"/></clipPath><g clip-path="url(#b)"><path d="m32 24.0278v-15.25581c0-4.62378-3.7483-8.372088-8.3721-8.372088h-15.25581c-4.62378 0-8.37208619 3.748308-8.37208619 8.372088v15.25581c0 4.6238 3.74830619 8.3721 8.37208619 8.3721h15.25581c4.6238 0 8.3721-3.7483 8.3721-8.3721z" fill="url(#a)"/><g fill="#fff"><path d="m20.9685 10.3696c-.2164 0-.428.0642-.608.1845-.18.1202-.3203.2911-.4031.4911s-.1045.42-.0623.6323c.0423.2123.1465.4073.2996.5604.153.153.348.2573.5603.2995s.4323.0205.6323-.0623.3709-.2231.4912-.4031c.1202-.1799.1844-.3915.1844-.608 0-.2902-.1153-.5686-.3205-.7738-.2053-.2053-.4836-.3206-.7739-.3206z"/><path d="m16.0766 11.7815c-.9165-.0022-1.8131.2678-2.576.7756-.763.5079-1.358 1.2307-1.7098 2.0771-.3517.8463-.4443 1.778-.266 2.677s.6194 1.7249 1.2675 2.373c.648.648 1.4739 1.0892 2.3729 1.2674.899.1783 1.8307.0857 2.677-.266.8464-.3518 1.5693-.9468 2.0771-1.7098.5078-.7629.7778-1.6594.7756-2.576-.0029-1.2239-.4904-2.3969-1.3559-3.2624-.8654-.8655-2.0385-1.353-3.2624-1.3559zm0 7.5841c-.5871.0022-1.1615-.1699-1.6507-.4945-.4892-.3245-.871-.787-1.0971-1.3287-.2262-.5417-.2865-1.1384-.1733-1.7144s.3948-1.1055.8091-1.5214c.4144-.4159.9428-.6994 1.5184-.8147.5756-.1154 1.1725-.0573 1.7151.1669.5425.2241 1.0064.6042 1.3327 1.0922.3264.488.5006 1.0618.5006 1.6488 0 .7847-.3109 1.5374-.8648 2.0933-.5538.5559-1.3053.8696-2.09.8725z"/><path d="m19.7428 25.7898h-7.4856c-1.4939-.0029-2.92579-.5976-3.98214-1.654-1.05635-1.0563-1.65109-2.4882-1.65398-3.9821v-7.4966c.00289-1.4939.59763-2.92578 1.65398-3.98213s2.48824-1.65108 3.98214-1.65397h7.4856c1.4939.00289 2.9258.59762 3.9822 1.65397 1.0563 1.05635 1.6511 2.48823 1.6539 3.98213v7.4966c-.0028 1.4939-.5976 2.9258-1.6539 3.9821-1.0564 1.0564-2.4883 1.6511-3.9822 1.654zm-7.4856-16.9959c-1.0256 0-2.0093.40667-2.73557 1.13085-.72623.72415-1.13568 1.70675-1.13858 2.73235v7.4966c.0029 1.0256.41235 2.0082 1.13858 2.7324.72627.7241 1.70997 1.1308 2.73557 1.1308h7.4856c1.0256 0 2.0094-.4067 2.7356-1.1308.7262-.7242 1.1357-1.7068 1.1386-2.7324v-7.4966c-.0029-1.0256-.4124-2.0082-1.1386-2.73235-.7262-.72418-1.71-1.13085-2.7356-1.13085z"/></g></g></svg>