<svg id="圖層_1" data-name="圖層 1" xmlns="http://www.w3.org/2000/svg" viewBox="0 0 778 424"><defs><style>.cls-1{fill:#fff;}</style></defs><title>mobile</title><path class="cls-1" d="M743,0H35A35,35,0,0,0,0,35V389a35,35,0,0,0,35,35H743a35,35,0,0,0,35-35V35A35,35,0,0,0,743,0ZM100,414H35a25,25,0,0,1-25-25V35A25,25,0,0,1,35,10h65Zm568,0H110V10H668Zm100-25a25,25,0,0,1-25,25H678V10h65a25,25,0,0,1,25,25Z"/><circle class="cls-1" cx="721.3" cy="212" r="31.2"/><path class="cls-1" d="M55.88,239.25a5,5,0,0,0,5-5v-96a5,5,0,0,0-10,0v96A5,5,0,0,0,55.88,239.25Z"/><circle class="cls-1" cx="55.87" cy="272.5" r="13.25"/></svg>