<?xml version="1.0" standalone="no"?>
<!DOCTYPE svg PUBLIC "-//W3C//DTD SVG 20010904//EN"
 "http://www.w3.org/TR/2001/REC-SVG-20010904/DTD/svg10.dtd">
<svg version="1.0" xmlns="http://www.w3.org/2000/svg"
 width="512.000000pt" height="512.000000pt" viewBox="0 0 512.000000 512.000000"
 preserveAspectRatio="xMidYMid meet">
<metadata>
Created by potrace 1.11, written by Peter Selinger 2001-2013
</metadata>
<g transform="translate(0.000000,512.000000) scale(0.100000,-0.100000)"
fill="#000000" stroke="none">
<path d="M2220 5084 c-554 -75 -1067 -330 -1460 -724 -402 -404 -656 -922
-725 -1480 -20 -163 -20 -482 0 -637 112 -857 633 -1582 1410 -1964 250 -122
504 -199 800 -241 118 -17 512 -17 630 0 586 84 1087 331 1485 731 398 401
640 895 722 1476 20 140 17 533 -6 680 -88 575 -342 1068 -757 1470 -391 378
-890 619 -1432 690 -150 19 -519 19 -667 -1z m1410 -1288 l0 -75 268 -3 c243
-3 270 -5 295 -22 48 -32 57 -63 57 -191 l0 -115 -120 0 -120 0 0 -160 0 -160
65 0 c36 0 82 -7 104 -16 64 -25 71 -45 71 -189 l0 -125 -735 0 c-806 0 -788
-1 -819 59 -12 22 -16 61 -16 151 l0 120 120 0 120 0 0 160 0 160 -57 0 c-83
1 -135 15 -160 45 -21 24 -23 36 -23 156 l0 129 310 0 310 0 0 68 c0 38 3 72
7 75 3 4 78 7 165 7 l158 0 0 -74z m-1627 -40 c18 -7 145 -128 283 -267 l252
-254 21 -69 c18 -58 21 -94 21 -247 l0 -179 -230 0 -230 0 0 -166 0 -165 188
2 c207 2 220 -1 247 -57 11 -23 15 -66 15 -148 l0 -116 -225 0 -225 0 0 -187
c1 -177 2 -186 17 -158 87 166 317 166 394 0 66 -143 -39 -305 -197 -305 -93
0 -171 51 -204 132 -5 15 -9 -84 -9 -279 l-1 -303 231 0 231 0 -6 -27 c-15
-65 -78 -173 -124 -213 -99 -88 -82 -85 -477 -88 -413 -4 -415 -3 -496 77 -52
53 -139 201 -139 237 0 12 40 14 225 14 l225 0 0 550 0 550 -185 0 c-197 0
-232 7 -255 49 -5 11 -10 76 -10 145 l0 126 223 2 222 3 3 143 3 142 -176 0
c-96 0 -175 4 -175 8 0 5 73 81 163 169 200 198 187 193 456 193 l186 0 -110
110 c-117 118 -149 136 -208 119 -22 -6 -111 -88 -304 -281 l-271 -271 -7 37
c-4 20 -5 107 -3 194 6 229 -3 212 297 516 223 225 280 274 319 276 7 0 27 -6
45 -14z m2252 -1721 l0 -595 -162 0 -163 0 0 -225 0 -225 243 -2 242 -3 -85
-89 c-47 -49 -123 -122 -169 -163 l-83 -73 -239 0 -239 0 0 390 0 390 -134 0
-135 0 -3 -277 c-3 -276 -3 -278 -29 -334 -33 -69 -87 -122 -147 -145 -40 -15
-90 -19 -334 -22 -159 -2 -288 0 -288 4 0 3 16 24 36 46 45 50 90 145 106 221
l12 57 158 0 158 0 0 225 0 225 -111 0 c-128 0 -159 12 -190 72 -18 35 -19 66
-19 578 l0 540 788 0 787 0 0 -595z m-2597 -370 c-3 -191 -4 -202 -28 -247
-35 -66 -289 -323 -297 -302 -3 9 -3 118 0 242 9 302 3 288 182 470 l140 144
3 -54 c2 -29 2 -143 0 -253z"/>
<path d="M3250 3230 l0 -160 215 0 215 0 0 160 0 160 -215 0 -215 0 0 -160z"/>
<path d="M3343 2391 c-28 -10 -71 -33 -96 -50 -41 -28 -52 -30 -143 -33 l-99
-3 -3 -80 c-2 -44 0 -167 3 -272 l7 -193 94 0 c92 0 96 -1 145 -35 71 -49 145
-69 234 -63 74 5 170 40 210 78 17 16 39 20 125 22 l105 3 0 270 0 270 -103 2
c-89 1 -107 4 -125 21 -75 71 -250 102 -354 63z m229 -99 c106 -47 168 -140
168 -252 0 -107 -39 -188 -114 -239 -155 -106 -352 -51 -430 118 -26 57 -27
168 -2 224 34 76 117 146 201 168 45 12 128 3 177 -19z"/>
<path d="M3390 2227 c-19 -6 -53 -30 -75 -52 -131 -130 -41 -345 143 -345 65
0 107 18 149 61 41 44 53 77 53 148 0 138 -134 231 -270 188z"/>
</g>
</svg>
