<svg xmlns="http://www.w3.org/2000/svg" width="682.667" height="682.667" viewBox="0 0 512 512" preserveAspectRatio="xMidYMid meet" xmlns:v="https://vecta.io/nano"><path d="M222 3.6c-55.4 7.5-106.7 33-146 72.4-40.2 40.4-65.6 92.2-72.5 148-2 16.3-2 48.2 0 63.7 11.2 85.7 63.3 158.2 141 196.4 25 12.2 50.4 19.9 80 24.1 11.8 1.7 51.2 1.7 63 0 58.6-8.4 108.7-33.1 148.5-73.1 39.8-40.1 64-89.5 72.2-147.6 2-14 1.7-53.3-.6-68-8.8-57.5-34.2-106.8-75.7-147-39.1-37.8-89-61.9-143.2-69-15-1.9-51.9-1.9-66.7.1zm141 128.8v7.5l26.8.3c24.3.3 27 .5 29.5 2.2 4.8 3.2 5.7 6.3 5.7 19.1V173h-24v32h6.5c3.6 0 8.2.7 10.4 1.6 6.4 2.5 7.1 4.5 7.1 18.9V238h-73.5c-80.6 0-78.8.1-81.9-5.9-1.2-2.2-1.6-6.1-1.6-15.1v-12h24v-32h-5.7c-8.3-.1-13.5-1.5-16-4.5-2.1-2.4-2.3-3.6-2.3-15.6V140h62v-6.8c0-3.8.3-7.2.7-7.5.3-.4 7.8-.7 16.5-.7H363v7.4zm-162.7 4c1.8.7 14.5 12.8 28.3 26.7l25.2 25.4 2.1 6.9c1.8 5.8 2.1 9.4 2.1 24.7V238h-46v33.1l18.8-.2c20.7-.2 22 .1 24.7 5.7 1.1 2.3 1.5 6.6 1.5 14.8V303h-45v18.7c.1 17.7.2 18.6 1.7 15.8 8.7-16.6 31.7-16.6 39.4 0 6.6 14.3-3.9 30.5-19.7 30.5-9.3 0-17.1-5.1-20.4-13.2-.5-1.5-.9 8.4-.9 27.9L212 413h46.2l-.6 2.7c-1.5 6.5-7.8 17.3-12.4 21.3-9.9 8.8-8.2 8.5-47.7 8.8-41.3.4-41.5.3-49.6-7.7-5.2-5.3-13.9-20.1-13.9-23.7 0-1.2 4-1.4 22.5-1.4H179V303h-18.5c-19.7 0-23.2-.7-25.5-4.9-.5-1.1-1-7.6-1-14.5V271l22.3-.2 22.2-.3.6-28.5h-17.6c-9.6 0-17.5-.4-17.5-.8 0-.5 7.3-8.1 16.3-16.9 20-19.8 18.7-19.3 45.6-19.3h18.6l-11-11c-11.7-11.8-14.9-13.6-20.8-11.9-2.2.6-11.1 8.8-30.4 28.1l-27.1 27.1-.7-3.7c-.4-2-.5-10.7-.3-19.4.6-22.9-.3-21.2 29.7-51.6 22.3-22.5 28-27.4 31.9-27.6.7 0 2.7.6 4.5 1.4zm225.2 172.1V368H393v45l24.3.2 24.2.3-8.5 8.9c-4.7 4.9-12.3 12.2-16.9 16.3l-8.3 7.3H360v-78h-26.9l-.3 27.7c-.3 27.6-.3 27.8-2.9 33.4-3.3 6.9-8.7 12.2-14.7 14.5-4 1.5-9 1.9-33.4 2.2-15.9.2-28.8 0-28.8-.4 0-.3 1.6-2.4 3.6-4.6 4.5-5 9-14.5 10.6-22.1l1.2-5.7H300v-45h-11.1c-12.8 0-15.9-1.2-19-7.2-1.8-3.5-1.9-6.6-1.9-57.8v-54h157.5v59.5zm-259.7 37c-.3 19.1-.4 20.2-2.8 24.7-3.5 6.6-28.9 32.3-29.7 30.2-.3-.9-.3-11.8 0-24.2.9-30.2.3-28.8 18.2-47l14-14.4.3 5.4c.2 2.9.2 14.3 0 25.3zM325 189v16h43v-32h-43v16zm9.3 83.9c-2.8 1-7.1 3.3-9.6 5-4.1 2.8-5.2 3-14.3 3.3l-9.9.3-.3 8c-.2 4.4 0 16.7.3 27.2l.7 19.3h9.4c9.2 0 9.6.1 14.5 3.5 7.1 4.9 14.5 6.9 23.4 6.3 7.4-.5 17-4 21-7.8 1.7-1.6 3.9-2 12.5-2.2l10.5-.3v-54l-10.3-.2c-8.9-.1-10.7-.4-12.5-2.1-7.5-7.1-25-10.2-35.4-6.3zm22.9 9.9c10.6 4.7 16.8 14 16.8 25.2 0 10.7-3.9 18.8-11.4 23.9-15.5 10.6-35.2 5.1-43-11.8-2.6-5.7-2.7-16.8-.2-22.4 3.4-7.6 11.7-14.6 20.1-16.8 4.5-1.2 12.8-.3 17.7 1.9zm-18.2 6.5c-1.9.6-5.3 3-7.5 5.2-13.1 13-4.1 34.5 14.3 34.5 6.5 0 10.7-1.8 14.9-6.1 4.1-4.4 5.3-7.7 5.3-14.8 0-13.8-13.4-23.1-27-18.8z"/></svg>