<svg version="1" xmlns="http://www.w3.org/2000/svg" width="318.667" height="318.667" viewBox="0 0 239.000000 239.000000"><path d="M109 .6c-1.4.2-5.9.9-10 1.5s-11.4 2.4-16.2 4C41 19.7 9.6 55.7 1.9 99c-1.7 9.6-1.7 31.4 0 41 8.7 48.5 47 87.3 95.1 96.4 10.8 2.1 34.2 2.1 45 0 47.7-9 85.6-47.1 94.6-95.1 1.2-6.9 1.5-12.7 1.1-26.3-.5-20.9-2.7-30.1-11.1-47.5-16.2-33.7-46.6-57.2-83.6-65-7.4-1.6-29.1-2.8-34-1.9zm61 60.9V65h12.9c12.3 0 13.1.1 14.5 2.2 1 1.4 1.6 4.4 1.6 7.5V80h-12v15h4c5.9 0 8 2.5 8 9.7v5.8l-35.7-.3c-40.9-.3-38.3.4-38.3-9.4V95h11v-5.3c0-2.8.3-6.2.6-7.5.6-2 .3-2.2-3.3-2.2-6.4 0-8.3-2.1-8.3-9.1V65h29v-7h16v3.5zm-64.7 12.2c6.6 6.5 12.6 13.2 13.3 15 .9 2 1.4 6.8 1.4 12.3v9H99v16h8.9c11.1 0 12.1.7 12.1 9.1v5.9H99v8.7c.1 8.2.2 8.6 1.5 6.2 3.1-5.7 11.4-6.1 16-.7 3.3 3.9 3.3 8.7 0 12.6-4.3 5.1-11.7 5-15.7-.1-1.7-2.1-1.8-1.7-1.8 11.5V193h10.5c7 0 10.5.4 10.5 1.1 0 2.8-3.7 8.4-7.3 11l-4 2.9h-36l-4.2-4.4c-2.3-2.4-4.7-5.7-5.3-7.5l-1.1-3.1H83v-52h-8.9c-11.1 0-12.1-.7-12.1-9.1V126h21v-14H66.6l6.9-7.1c3.9-3.9 8.4-7.7 10.2-8.5 2-.8 6.7-1.4 12-1.4h8.7L99 89.5c-3.1-3.1-6.3-5.5-7.5-5.5-1.3 0-6.8 4.8-15 13-7.1 7.1-13.3 13-13.7 13-1.2 0-.9-13.9.3-18.5.8-3.1 3.8-6.8 13.8-16.8C84.1 67.5 90.4 62 91.4 62c1.1 0 7.2 5.2 13.9 11.7zM199 144v28h-15v21h22.5l-7.6 7.5-7.6 7.5H168v-36h-11.8l-.4 12.7c-.4 14.4-1.4 17.4-6.7 21-3.1 2.1-4.5 2.3-17.3 2.3h-13.9l2.5-3.3c1.3-1.7 3-5.1 3.7-7.5l1.2-4.2H140v-21h-5c-4.1 0-5.6-.5-7.5-2.5l-2.5-2.4V116h74v28zM77 159.2c-.3 6.8-1 13.2-1.7 14.3-.6 1.1-3.9 4.7-7.2 8l-6.1 5.9v-11.1c0-6.2.5-12.4 1.1-14C64 159.8 75.6 147 77 147c.3 0 .3 5.5 0 12.2z"/><path d="M152 87.5V95h20V80h-20v7.5zM153.4 128.5c-2.9 1.5-6.6 2.5-9.1 2.5H140v25h4.5c3.1 0 5.5.7 7.5 2.2 1.9 1.3 4.9 2.3 8.4 2.6 4.6.4 6.3 0 10.2-2.2 3-1.7 6.2-2.6 9-2.6h4.4v-25h-4.4c-2.9 0-6.2-.9-9.2-2.5-5.9-3.2-10.8-3.2-17 0zm16.5 5c3.3 2.9 5.6 8.5 4.7 11.9-.9 3.5-10 11.6-13.1 11.6-4.3 0-9.3-2.7-10.9-5.9-2.9-5.5-2.1-8.7 3.6-14.7 4.4-4.7 5.7-5.4 8.9-5.4 2.6 0 4.7.8 6.8 2.5z"/><path d="M155.1 136.6c-6.7 5.6-2.2 16.9 6.8 16.9 4.5 0 6.9-1.7 8.8-6.3 1.1-2.7 1.1-3.7-.1-6.6-2.8-6.8-10-8.7-15.5-4zm12.3 2.5c3.3 3.8 3.3 7.3.1 10.4-3.6 3.7-7.6 3.3-11.5-1.1-2.5-2.9-3-4.2-2.5-6.3 1.1-4.2 3.4-6.1 7.6-6.1 2.9 0 4.3.6 6.3 3.1z"/></svg>